<?xml version="1.0" encoding="UTF-8"?>
<svg xmlns="http://www.w3.org/2000/svg" viewBox="0 0 577 120">
  <defs>
    <linearGradient id="g" x1="12" y1="0" x2="565" y2="0" gradientUnits="userSpaceOnUse" color-interpolation="linearRGB">
      <stop offset="0%" stop-color="#f4a9a7"/>
      <stop offset="6%" stop-color="#f7afa5"/>
      <stop offset="20%" stop-color="#f8b6a3"/>
      <stop offset="39%" stop-color="#f9bda3"/>
      <stop offset="61%" stop-color="#fac4a4"/>
      <stop offset="80%" stop-color="#facba7"/>
      <stop offset="94%" stop-color="#f9d2aa"/>
      <stop offset="100%" stop-color="#f8d9af"/>
    </linearGradient>
    <linearGradient id="gs" x1="12" y1="0" x2="565" y2="0" gradientUnits="userSpaceOnUse" color-interpolation="linearRGB">
      <stop offset="0%" stop-color="#7f5857"/>
      <stop offset="6%" stop-color="#805b56"/>
      <stop offset="20%" stop-color="#815f55"/>
      <stop offset="39%" stop-color="#826255"/>
      <stop offset="61%" stop-color="#826655"/>
      <stop offset="80%" stop-color="#826a57"/>
      <stop offset="94%" stop-color="#826d58"/>
      <stop offset="100%" stop-color="#81715b"/>
    </linearGradient>
  </defs>
  <g fill="url(#g)">
    <rect x="26" y="12" width="7" height="12"/>
    <rect x="33" y="12" width="7" height="12"/>
    <rect x="40" y="12" width="7" height="12"/>
    <rect x="47" y="12" width="7" height="12"/>
    <rect x="54" y="12" width="7" height="12"/>
    <rect x="61" y="12" width="7" height="12"/>
    <rect x="68" y="12" width="7" height="12"/>
    <rect x="75" y="12" width="7" height="12"/>
    <rect x="82" y="12" width="7" height="12"/>
    <rect x="19" y="24" width="7" height="12"/>
    <rect x="26" y="24" width="7" height="12"/>
    <rect x="33" y="24" width="7" height="12"/>
    <rect x="40" y="24" width="7" height="12"/>
    <rect x="47" y="24" width="7" height="12"/>
    <rect x="54" y="24" width="7" height="12"/>
    <rect x="61" y="24" width="7" height="12"/>
    <rect x="68" y="24" width="7" height="12"/>
    <rect x="75" y="24" width="7" height="12"/>
    <rect x="82" y="24" width="7" height="12"/>
    <rect x="89" y="24" width="7" height="12"/>
    <rect x="12" y="36" width="7" height="12"/>
    <rect x="19" y="36" width="7" height="12"/>
    <rect x="26" y="36" width="7" height="12"/>
    <rect x="33" y="36" width="7" height="12"/>
    <rect x="68" y="36" width="7" height="12"/>
    <rect x="75" y="36" width="7" height="12"/>
    <rect x="82" y="36" width="7" height="12"/>
    <rect x="110" y="36" width="7" height="12"/>
    <rect x="117" y="36" width="7" height="12"/>
    <rect x="124" y="36" width="7" height="12"/>
    <rect x="131" y="36" width="7" height="12"/>
    <rect x="138" y="36" width="7" height="12"/>
    <rect x="152" y="36" width="7" height="12"/>
    <rect x="159" y="36" width="7" height="12"/>
    <rect x="166" y="36" width="7" height="12"/>
    <rect x="173" y="36" width="7" height="12"/>
    <rect x="194" y="36" width="7" height="12"/>
    <rect x="201" y="36" width="7" height="12"/>
    <rect x="208" y="36" width="7" height="12"/>
    <rect x="215" y="36" width="7" height="12"/>
    <rect x="222" y="36" width="7" height="12"/>
    <rect x="229" y="36" width="7" height="12"/>
    <rect x="236" y="36" width="7" height="12"/>
    <rect x="243" y="36" width="7" height="12"/>
    <rect x="250" y="36" width="7" height="12"/>
    <rect x="257" y="36" width="7" height="12"/>
    <rect x="264" y="36" width="7" height="12"/>
    <rect x="271" y="36" width="7" height="12"/>
    <rect x="278" y="36" width="7" height="12"/>
    <rect x="313" y="36" width="7" height="12"/>
    <rect x="320" y="36" width="7" height="12"/>
    <rect x="327" y="36" width="7" height="12"/>
    <rect x="334" y="36" width="7" height="12"/>
    <rect x="341" y="36" width="7" height="12"/>
    <rect x="348" y="36" width="7" height="12"/>
    <rect x="355" y="36" width="7" height="12"/>
    <rect x="362" y="36" width="7" height="12"/>
    <rect x="369" y="36" width="7" height="12"/>
    <rect x="376" y="36" width="7" height="12"/>
    <rect x="383" y="36" width="7" height="12"/>
    <rect x="390" y="36" width="7" height="12"/>
    <rect x="397" y="36" width="7" height="12"/>
    <rect x="439" y="36" width="7" height="12"/>
    <rect x="446" y="36" width="7" height="12"/>
    <rect x="453" y="36" width="7" height="12"/>
    <rect x="460" y="36" width="7" height="12"/>
    <rect x="467" y="36" width="7" height="12"/>
    <rect x="474" y="36" width="7" height="12"/>
    <rect x="502" y="36" width="7" height="12"/>
    <rect x="509" y="36" width="7" height="12"/>
    <rect x="516" y="36" width="7" height="12"/>
    <rect x="523" y="36" width="7" height="12"/>
    <rect x="530" y="36" width="7" height="12"/>
    <rect x="537" y="36" width="7" height="12"/>
    <rect x="544" y="36" width="7" height="12"/>
    <rect x="551" y="36" width="7" height="12"/>
    <rect x="12" y="48" width="7" height="12"/>
    <rect x="19" y="48" width="7" height="12"/>
    <rect x="26" y="48" width="7" height="12"/>
    <rect x="33" y="48" width="7" height="12"/>
    <rect x="40" y="48" width="7" height="12"/>
    <rect x="47" y="48" width="7" height="12"/>
    <rect x="54" y="48" width="7" height="12"/>
    <rect x="61" y="48" width="7" height="12"/>
    <rect x="68" y="48" width="7" height="12"/>
    <rect x="75" y="48" width="7" height="12"/>
    <rect x="82" y="48" width="7" height="12"/>
    <rect x="103" y="48" width="7" height="12"/>
    <rect x="110" y="48" width="7" height="12"/>
    <rect x="117" y="48" width="7" height="12"/>
    <rect x="124" y="48" width="7" height="12"/>
    <rect x="131" y="48" width="7" height="12"/>
    <rect x="145" y="48" width="7" height="12"/>
    <rect x="152" y="48" width="7" height="12"/>
    <rect x="159" y="48" width="7" height="12"/>
    <rect x="166" y="48" width="7" height="12"/>
    <rect x="187" y="48" width="7" height="12"/>
    <rect x="194" y="48" width="7" height="12"/>
    <rect x="201" y="48" width="7" height="12"/>
    <rect x="208" y="48" width="7" height="12"/>
    <rect x="215" y="48" width="7" height="12"/>
    <rect x="222" y="48" width="7" height="12"/>
    <rect x="229" y="48" width="7" height="12"/>
    <rect x="236" y="48" width="7" height="12"/>
    <rect x="243" y="48" width="7" height="12"/>
    <rect x="250" y="48" width="7" height="12"/>
    <rect x="257" y="48" width="7" height="12"/>
    <rect x="264" y="48" width="7" height="12"/>
    <rect x="271" y="48" width="7" height="12"/>
    <rect x="278" y="48" width="7" height="12"/>
    <rect x="285" y="48" width="7" height="12"/>
    <rect x="306" y="48" width="7" height="12"/>
    <rect x="313" y="48" width="7" height="12"/>
    <rect x="320" y="48" width="7" height="12"/>
    <rect x="327" y="48" width="7" height="12"/>
    <rect x="334" y="48" width="7" height="12"/>
    <rect x="341" y="48" width="7" height="12"/>
    <rect x="348" y="48" width="7" height="12"/>
    <rect x="355" y="48" width="7" height="12"/>
    <rect x="362" y="48" width="7" height="12"/>
    <rect x="369" y="48" width="7" height="12"/>
    <rect x="376" y="48" width="7" height="12"/>
    <rect x="383" y="48" width="7" height="12"/>
    <rect x="390" y="48" width="7" height="12"/>
    <rect x="397" y="48" width="7" height="12"/>
    <rect x="404" y="48" width="7" height="12"/>
    <rect x="432" y="48" width="7" height="12"/>
    <rect x="439" y="48" width="7" height="12"/>
    <rect x="446" y="48" width="7" height="12"/>
    <rect x="453" y="48" width="7" height="12"/>
    <rect x="460" y="48" width="7" height="12"/>
    <rect x="467" y="48" width="7" height="12"/>
    <rect x="474" y="48" width="7" height="12"/>
    <rect x="481" y="48" width="7" height="12"/>
    <rect x="495" y="48" width="7" height="12"/>
    <rect x="502" y="48" width="7" height="12"/>
    <rect x="509" y="48" width="7" height="12"/>
    <rect x="516" y="48" width="7" height="12"/>
    <rect x="523" y="48" width="7" height="12"/>
    <rect x="530" y="48" width="7" height="12"/>
    <rect x="537" y="48" width="7" height="12"/>
    <rect x="544" y="48" width="7" height="12"/>
    <rect x="551" y="48" width="7" height="12"/>
    <rect x="558" y="48" width="7" height="12"/>
    <rect x="19" y="60" width="7" height="12"/>
    <rect x="26" y="60" width="7" height="12"/>
    <rect x="33" y="60" width="7" height="12"/>
    <rect x="40" y="60" width="7" height="12"/>
    <rect x="47" y="60" width="7" height="12"/>
    <rect x="54" y="60" width="7" height="12"/>
    <rect x="61" y="60" width="7" height="12"/>
    <rect x="68" y="60" width="7" height="12"/>
    <rect x="75" y="60" width="7" height="12"/>
    <rect x="82" y="60" width="7" height="12"/>
    <rect x="89" y="60" width="7" height="12"/>
    <rect x="110" y="60" width="7" height="12"/>
    <rect x="117" y="60" width="7" height="12"/>
    <rect x="124" y="60" width="7" height="12"/>
    <rect x="131" y="60" width="7" height="12"/>
    <rect x="145" y="60" width="7" height="12"/>
    <rect x="152" y="60" width="7" height="12"/>
    <rect x="159" y="60" width="7" height="12"/>
    <rect x="166" y="60" width="7" height="12"/>
    <rect x="194" y="60" width="7" height="12"/>
    <rect x="201" y="60" width="7" height="12"/>
    <rect x="208" y="60" width="7" height="12"/>
    <rect x="215" y="60" width="7" height="12"/>
    <rect x="229" y="60" width="7" height="12"/>
    <rect x="236" y="60" width="7" height="12"/>
    <rect x="243" y="60" width="7" height="12"/>
    <rect x="250" y="60" width="7" height="12"/>
    <rect x="264" y="60" width="7" height="12"/>
    <rect x="271" y="60" width="7" height="12"/>
    <rect x="278" y="60" width="7" height="12"/>
    <rect x="285" y="60" width="7" height="12"/>
    <rect x="313" y="60" width="7" height="12"/>
    <rect x="320" y="60" width="7" height="12"/>
    <rect x="327" y="60" width="7" height="12"/>
    <rect x="334" y="60" width="7" height="12"/>
    <rect x="348" y="60" width="7" height="12"/>
    <rect x="355" y="60" width="7" height="12"/>
    <rect x="362" y="60" width="7" height="12"/>
    <rect x="369" y="60" width="7" height="12"/>
    <rect x="383" y="60" width="7" height="12"/>
    <rect x="390" y="60" width="7" height="12"/>
    <rect x="397" y="60" width="7" height="12"/>
    <rect x="404" y="60" width="7" height="12"/>
    <rect x="425" y="60" width="7" height="12"/>
    <rect x="432" y="60" width="7" height="12"/>
    <rect x="439" y="60" width="7" height="12"/>
    <rect x="446" y="60" width="7" height="12"/>
    <rect x="453" y="60" width="7" height="12"/>
    <rect x="460" y="60" width="7" height="12"/>
    <rect x="467" y="60" width="7" height="12"/>
    <rect x="474" y="60" width="7" height="12"/>
    <rect x="502" y="60" width="7" height="12"/>
    <rect x="509" y="60" width="7" height="12"/>
    <rect x="516" y="60" width="7" height="12"/>
    <rect x="523" y="60" width="7" height="12"/>
    <rect x="537" y="60" width="7" height="12"/>
    <rect x="544" y="60" width="7" height="12"/>
    <rect x="551" y="60" width="7" height="12"/>
    <rect x="19" y="72" width="7" height="12"/>
    <rect x="26" y="72" width="7" height="12"/>
    <rect x="33" y="72" width="7" height="12"/>
    <rect x="68" y="72" width="7" height="12"/>
    <rect x="75" y="72" width="7" height="12"/>
    <rect x="82" y="72" width="7" height="12"/>
    <rect x="89" y="72" width="7" height="12"/>
    <rect x="110" y="72" width="7" height="12"/>
    <rect x="117" y="72" width="7" height="12"/>
    <rect x="124" y="72" width="7" height="12"/>
    <rect x="131" y="72" width="7" height="12"/>
    <rect x="145" y="72" width="7" height="12"/>
    <rect x="152" y="72" width="7" height="12"/>
    <rect x="159" y="72" width="7" height="12"/>
    <rect x="166" y="72" width="7" height="12"/>
    <rect x="194" y="72" width="7" height="12"/>
    <rect x="201" y="72" width="7" height="12"/>
    <rect x="208" y="72" width="7" height="12"/>
    <rect x="215" y="72" width="7" height="12"/>
    <rect x="229" y="72" width="7" height="12"/>
    <rect x="236" y="72" width="7" height="12"/>
    <rect x="243" y="72" width="7" height="12"/>
    <rect x="250" y="72" width="7" height="12"/>
    <rect x="264" y="72" width="7" height="12"/>
    <rect x="271" y="72" width="7" height="12"/>
    <rect x="278" y="72" width="7" height="12"/>
    <rect x="285" y="72" width="7" height="12"/>
    <rect x="313" y="72" width="7" height="12"/>
    <rect x="320" y="72" width="7" height="12"/>
    <rect x="327" y="72" width="7" height="12"/>
    <rect x="334" y="72" width="7" height="12"/>
    <rect x="348" y="72" width="7" height="12"/>
    <rect x="355" y="72" width="7" height="12"/>
    <rect x="362" y="72" width="7" height="12"/>
    <rect x="369" y="72" width="7" height="12"/>
    <rect x="383" y="72" width="7" height="12"/>
    <rect x="390" y="72" width="7" height="12"/>
    <rect x="397" y="72" width="7" height="12"/>
    <rect x="404" y="72" width="7" height="12"/>
    <rect x="425" y="72" width="7" height="12"/>
    <rect x="432" y="72" width="7" height="12"/>
    <rect x="439" y="72" width="7" height="12"/>
    <rect x="446" y="72" width="7" height="12"/>
    <rect x="453" y="72" width="7" height="12"/>
    <rect x="460" y="72" width="7" height="12"/>
    <rect x="467" y="72" width="7" height="12"/>
    <rect x="502" y="72" width="7" height="12"/>
    <rect x="509" y="72" width="7" height="12"/>
    <rect x="516" y="72" width="7" height="12"/>
    <rect x="523" y="72" width="7" height="12"/>
    <rect x="12" y="84" width="7" height="12"/>
    <rect x="19" y="84" width="7" height="12"/>
    <rect x="26" y="84" width="7" height="12"/>
    <rect x="33" y="84" width="7" height="12"/>
    <rect x="40" y="84" width="7" height="12"/>
    <rect x="47" y="84" width="7" height="12"/>
    <rect x="54" y="84" width="7" height="12"/>
    <rect x="61" y="84" width="7" height="12"/>
    <rect x="68" y="84" width="7" height="12"/>
    <rect x="75" y="84" width="7" height="12"/>
    <rect x="82" y="84" width="7" height="12"/>
    <rect x="110" y="84" width="7" height="12"/>
    <rect x="117" y="84" width="7" height="12"/>
    <rect x="124" y="84" width="7" height="12"/>
    <rect x="131" y="84" width="7" height="12"/>
    <rect x="138" y="84" width="7" height="12"/>
    <rect x="145" y="84" width="7" height="12"/>
    <rect x="152" y="84" width="7" height="12"/>
    <rect x="159" y="84" width="7" height="12"/>
    <rect x="166" y="84" width="7" height="12"/>
    <rect x="173" y="84" width="7" height="12"/>
    <rect x="194" y="84" width="7" height="12"/>
    <rect x="201" y="84" width="7" height="12"/>
    <rect x="208" y="84" width="7" height="12"/>
    <rect x="215" y="84" width="7" height="12"/>
    <rect x="222" y="84" width="7" height="12"/>
    <rect x="229" y="84" width="7" height="12"/>
    <rect x="236" y="84" width="7" height="12"/>
    <rect x="243" y="84" width="7" height="12"/>
    <rect x="250" y="84" width="7" height="12"/>
    <rect x="264" y="84" width="7" height="12"/>
    <rect x="271" y="84" width="7" height="12"/>
    <rect x="278" y="84" width="7" height="12"/>
    <rect x="285" y="84" width="7" height="12"/>
    <rect x="292" y="84" width="7" height="12"/>
    <rect x="313" y="84" width="7" height="12"/>
    <rect x="320" y="84" width="7" height="12"/>
    <rect x="327" y="84" width="7" height="12"/>
    <rect x="334" y="84" width="7" height="12"/>
    <rect x="341" y="84" width="7" height="12"/>
    <rect x="348" y="84" width="7" height="12"/>
    <rect x="355" y="84" width="7" height="12"/>
    <rect x="362" y="84" width="7" height="12"/>
    <rect x="369" y="84" width="7" height="12"/>
    <rect x="383" y="84" width="7" height="12"/>
    <rect x="390" y="84" width="7" height="12"/>
    <rect x="397" y="84" width="7" height="12"/>
    <rect x="404" y="84" width="7" height="12"/>
    <rect x="411" y="84" width="7" height="12"/>
    <rect x="425" y="84" width="7" height="12"/>
    <rect x="432" y="84" width="7" height="12"/>
    <rect x="439" y="84" width="7" height="12"/>
    <rect x="446" y="84" width="7" height="12"/>
    <rect x="453" y="84" width="7" height="12"/>
    <rect x="460" y="84" width="7" height="12"/>
    <rect x="467" y="84" width="7" height="12"/>
    <rect x="474" y="84" width="7" height="12"/>
    <rect x="502" y="84" width="7" height="12"/>
    <rect x="509" y="84" width="7" height="12"/>
    <rect x="516" y="84" width="7" height="12"/>
    <rect x="523" y="84" width="7" height="12"/>
    <rect x="530" y="84" width="7" height="12"/>
    <rect x="19" y="96" width="7" height="12"/>
    <rect x="26" y="96" width="7" height="12"/>
    <rect x="33" y="96" width="7" height="12"/>
    <rect x="40" y="96" width="7" height="12"/>
    <rect x="47" y="96" width="7" height="12"/>
    <rect x="54" y="96" width="7" height="12"/>
    <rect x="61" y="96" width="7" height="12"/>
    <rect x="68" y="96" width="7" height="12"/>
    <rect x="75" y="96" width="7" height="12"/>
    <rect x="117" y="96" width="7" height="12"/>
    <rect x="124" y="96" width="7" height="12"/>
    <rect x="131" y="96" width="7" height="12"/>
    <rect x="138" y="96" width="7" height="12"/>
    <rect x="145" y="96" width="7" height="12"/>
    <rect x="152" y="96" width="7" height="12"/>
    <rect x="159" y="96" width="7" height="12"/>
    <rect x="166" y="96" width="7" height="12"/>
    <rect x="187" y="96" width="7" height="12"/>
    <rect x="194" y="96" width="7" height="12"/>
    <rect x="201" y="96" width="7" height="12"/>
    <rect x="208" y="96" width="7" height="12"/>
    <rect x="215" y="96" width="7" height="12"/>
    <rect x="229" y="96" width="7" height="12"/>
    <rect x="236" y="96" width="7" height="12"/>
    <rect x="243" y="96" width="7" height="12"/>
    <rect x="257" y="96" width="7" height="12"/>
    <rect x="264" y="96" width="7" height="12"/>
    <rect x="271" y="96" width="7" height="12"/>
    <rect x="278" y="96" width="7" height="12"/>
    <rect x="285" y="96" width="7" height="12"/>
    <rect x="306" y="96" width="7" height="12"/>
    <rect x="313" y="96" width="7" height="12"/>
    <rect x="320" y="96" width="7" height="12"/>
    <rect x="327" y="96" width="7" height="12"/>
    <rect x="334" y="96" width="7" height="12"/>
    <rect x="348" y="96" width="7" height="12"/>
    <rect x="355" y="96" width="7" height="12"/>
    <rect x="362" y="96" width="7" height="12"/>
    <rect x="376" y="96" width="7" height="12"/>
    <rect x="383" y="96" width="7" height="12"/>
    <rect x="390" y="96" width="7" height="12"/>
    <rect x="397" y="96" width="7" height="12"/>
    <rect x="404" y="96" width="7" height="12"/>
    <rect x="432" y="96" width="7" height="12"/>
    <rect x="439" y="96" width="7" height="12"/>
    <rect x="446" y="96" width="7" height="12"/>
    <rect x="453" y="96" width="7" height="12"/>
    <rect x="460" y="96" width="7" height="12"/>
    <rect x="467" y="96" width="7" height="12"/>
    <rect x="495" y="96" width="7" height="12"/>
    <rect x="502" y="96" width="7" height="12"/>
    <rect x="509" y="96" width="7" height="12"/>
    <rect x="516" y="96" width="7" height="12"/>
    <rect x="523" y="96" width="7" height="12"/>
  </g>
  <g fill="url(#gs)">
    <rect x="40" y="24" width="7" height="12"/>
    <rect x="47" y="24" width="7" height="12"/>
    <rect x="54" y="24" width="7" height="12"/>
    <rect x="61" y="24" width="7" height="12"/>
    <rect x="68" y="24" width="7" height="12"/>
    <rect x="12" y="36" width="7" height="12"/>
    <rect x="68" y="36" width="7" height="12"/>
    <rect x="75" y="36" width="7" height="12"/>
    <rect x="82" y="36" width="7" height="12"/>
    <rect x="12" y="48" width="7" height="12"/>
    <rect x="19" y="48" width="7" height="12"/>
    <rect x="103" y="48" width="7" height="12"/>
    <rect x="110" y="48" width="7" height="12"/>
    <rect x="145" y="48" width="7" height="12"/>
    <rect x="187" y="48" width="7" height="12"/>
    <rect x="194" y="48" width="7" height="12"/>
    <rect x="222" y="48" width="7" height="12"/>
    <rect x="229" y="48" width="7" height="12"/>
    <rect x="257" y="48" width="7" height="12"/>
    <rect x="264" y="48" width="7" height="12"/>
    <rect x="306" y="48" width="7" height="12"/>
    <rect x="313" y="48" width="7" height="12"/>
    <rect x="341" y="48" width="7" height="12"/>
    <rect x="348" y="48" width="7" height="12"/>
    <rect x="376" y="48" width="7" height="12"/>
    <rect x="383" y="48" width="7" height="12"/>
    <rect x="453" y="48" width="7" height="12"/>
    <rect x="460" y="48" width="7" height="12"/>
    <rect x="495" y="48" width="7" height="12"/>
    <rect x="502" y="48" width="7" height="12"/>
    <rect x="530" y="48" width="7" height="12"/>
    <rect x="537" y="48" width="7" height="12"/>
    <rect x="19" y="60" width="7" height="12"/>
    <rect x="26" y="60" width="7" height="12"/>
    <rect x="33" y="60" width="7" height="12"/>
    <rect x="40" y="60" width="7" height="12"/>
    <rect x="47" y="60" width="7" height="12"/>
    <rect x="54" y="60" width="7" height="12"/>
    <rect x="61" y="60" width="7" height="12"/>
    <rect x="68" y="60" width="7" height="12"/>
    <rect x="110" y="60" width="7" height="12"/>
    <rect x="145" y="60" width="7" height="12"/>
    <rect x="194" y="60" width="7" height="12"/>
    <rect x="229" y="60" width="7" height="12"/>
    <rect x="264" y="60" width="7" height="12"/>
    <rect x="313" y="60" width="7" height="12"/>
    <rect x="348" y="60" width="7" height="12"/>
    <rect x="383" y="60" width="7" height="12"/>
    <rect x="425" y="60" width="7" height="12"/>
    <rect x="502" y="60" width="7" height="12"/>
    <rect x="537" y="60" width="7" height="12"/>
    <rect x="544" y="60" width="7" height="12"/>
    <rect x="551" y="60" width="7" height="12"/>
    <rect x="68" y="72" width="7" height="12"/>
    <rect x="110" y="72" width="7" height="12"/>
    <rect x="145" y="72" width="7" height="12"/>
    <rect x="194" y="72" width="7" height="12"/>
    <rect x="229" y="72" width="7" height="12"/>
    <rect x="264" y="72" width="7" height="12"/>
    <rect x="313" y="72" width="7" height="12"/>
    <rect x="348" y="72" width="7" height="12"/>
    <rect x="383" y="72" width="7" height="12"/>
    <rect x="425" y="72" width="7" height="12"/>
    <rect x="453" y="72" width="7" height="12"/>
    <rect x="460" y="72" width="7" height="12"/>
    <rect x="467" y="72" width="7" height="12"/>
    <rect x="502" y="72" width="7" height="12"/>
    <rect x="12" y="84" width="7" height="12"/>
    <rect x="19" y="84" width="7" height="12"/>
    <rect x="110" y="84" width="7" height="12"/>
    <rect x="117" y="84" width="7" height="12"/>
    <rect x="229" y="84" width="7" height="12"/>
    <rect x="348" y="84" width="7" height="12"/>
    <rect x="425" y="84" width="7" height="12"/>
    <rect x="432" y="84" width="7" height="12"/>
    <rect x="19" y="96" width="7" height="12"/>
    <rect x="26" y="96" width="7" height="12"/>
    <rect x="33" y="96" width="7" height="12"/>
    <rect x="40" y="96" width="7" height="12"/>
    <rect x="47" y="96" width="7" height="12"/>
    <rect x="54" y="96" width="7" height="12"/>
    <rect x="61" y="96" width="7" height="12"/>
    <rect x="68" y="96" width="7" height="12"/>
    <rect x="75" y="96" width="7" height="12"/>
    <rect x="117" y="96" width="7" height="12"/>
    <rect x="124" y="96" width="7" height="12"/>
    <rect x="131" y="96" width="7" height="12"/>
    <rect x="138" y="96" width="7" height="12"/>
    <rect x="145" y="96" width="7" height="12"/>
    <rect x="152" y="96" width="7" height="12"/>
    <rect x="159" y="96" width="7" height="12"/>
    <rect x="166" y="96" width="7" height="12"/>
    <rect x="187" y="96" width="7" height="12"/>
    <rect x="194" y="96" width="7" height="12"/>
    <rect x="201" y="96" width="7" height="12"/>
    <rect x="208" y="96" width="7" height="12"/>
    <rect x="215" y="96" width="7" height="12"/>
    <rect x="229" y="96" width="7" height="12"/>
    <rect x="236" y="96" width="7" height="12"/>
    <rect x="243" y="96" width="7" height="12"/>
    <rect x="257" y="96" width="7" height="12"/>
    <rect x="264" y="96" width="7" height="12"/>
    <rect x="271" y="96" width="7" height="12"/>
    <rect x="278" y="96" width="7" height="12"/>
    <rect x="285" y="96" width="7" height="12"/>
    <rect x="306" y="96" width="7" height="12"/>
    <rect x="313" y="96" width="7" height="12"/>
    <rect x="320" y="96" width="7" height="12"/>
    <rect x="327" y="96" width="7" height="12"/>
    <rect x="334" y="96" width="7" height="12"/>
    <rect x="348" y="96" width="7" height="12"/>
    <rect x="355" y="96" width="7" height="12"/>
    <rect x="362" y="96" width="7" height="12"/>
    <rect x="376" y="96" width="7" height="12"/>
    <rect x="383" y="96" width="7" height="12"/>
    <rect x="390" y="96" width="7" height="12"/>
    <rect x="397" y="96" width="7" height="12"/>
    <rect x="404" y="96" width="7" height="12"/>
    <rect x="432" y="96" width="7" height="12"/>
    <rect x="439" y="96" width="7" height="12"/>
    <rect x="446" y="96" width="7" height="12"/>
    <rect x="453" y="96" width="7" height="12"/>
    <rect x="460" y="96" width="7" height="12"/>
    <rect x="467" y="96" width="7" height="12"/>
    <rect x="495" y="96" width="7" height="12"/>
    <rect x="502" y="96" width="7" height="12"/>
    <rect x="509" y="96" width="7" height="12"/>
    <rect x="516" y="96" width="7" height="12"/>
    <rect x="523" y="96" width="7" height="12"/>
  </g>
</svg>
